<?xml version="1.0" encoding="UTF-8" standalone="no"?>
<!-- Generator: Adobe Illustrator 17.1.0, SVG Export Plug-In . SVG Version: 6.00 Build 0)  -->

<svg
   xmlns:dc="http://purl.org/dc/elements/1.1/"
   xmlns:cc="http://creativecommons.org/ns#"
   xmlns:rdf="http://www.w3.org/1999/02/22-rdf-syntax-ns#"
   xmlns:svg="http://www.w3.org/2000/svg"
   xmlns="http://www.w3.org/2000/svg"
   xmlns:sodipodi="http://sodipodi.sourceforge.net/DTD/sodipodi-0.dtd"
   xmlns:inkscape="http://www.inkscape.org/namespaces/inkscape"
   version="1.1"
   id="Layer_1"
   x="0px"
   y="0px"
   viewBox="0 0 595.28 595.28"
   enable-background="new 0 0 595.28 595.28"
   xml:space="preserve"
   sodipodi:docname="send.svg"
   inkscape:version="0.92.5 (2060ec1f9f, 2020-04-08)"><metadata
   id="metadata85"><rdf:RDF><cc:Work
       rdf:about=""><dc:format>image/svg+xml</dc:format><dc:type
         rdf:resource="http://purl.org/dc/dcmitype/StillImage" /></cc:Work></rdf:RDF></metadata><defs
   id="defs83">
	
	

		
		
	
			
			
			
			
			
			
			
			
			
			
			
			
			
			
			
			
			
			
			
			
			
			
			
				
			
			
			
		
			
			
		</defs><sodipodi:namedview
   pagecolor="#ffffff"
   bordercolor="#666666"
   borderopacity="1"
   objecttolerance="10"
   gridtolerance="10"
   guidetolerance="10"
   inkscape:pageopacity="0"
   inkscape:pageshadow="2"
   inkscape:window-width="1920"
   inkscape:window-height="1016"
   id="namedview81"
   showgrid="false"
   inkscape:zoom="1.1213358"
   inkscape:cx="459.47213"
   inkscape:cy="180.84823"
   inkscape:window-x="0"
   inkscape:window-y="27"
   inkscape:window-maximized="1"
   inkscape:current-layer="Layer_1" />
<g
   id="g1037"><g
     id="g4">
				<circle
   cx="303.80899"
   cy="327.14001"
   r="221.41299"
   id="circle2"
   style="fill:#d8758a" />
			</g><g
     id="g8">
				<circle
   cx="286.922"
   cy="307.23999"
   r="221.41299"
   id="circle6"
   style="fill:#fdeef5" />
			</g><path
     d="m 403.749,234.505 c 10.02,-8.18 15.176,-31.257 8.832,-43.018 -5.402,-10.012 -25.657,-15.143 -34.702,-6.818 -13.417,12.341 -1.382,30.563 13.864,30.612 -13.761,-1.666 -19.229,-22.748 -3.199,-23.765 11.024,-0.698 17.661,16.58 12.186,24.983 -8.755,13.417 -21.219,0.209 -31.144,-0.982 -6.747,-0.81 -14.993,2.324 -18.405,8.512 -1.752,3.168 0.63,19.784 0.931,19.542 11.467,-9.283 10.84,-6.978 23.422,-4.299 9.561,2.034 20.284,1.712 28.215,-4.767 z"
     id="path12"
     inkscape:connector-curvature="0"
     style="fill:#e0b027" /><path
     d="m 397.24,232.168 c 10.02,-8.182 15.172,-31.261 8.832,-43.02 -5.405,-10.012 -25.654,-15.143 -34.702,-6.82 -13.417,12.345 -1.385,30.564 13.86,30.614 -13.754,-1.666 -19.226,-22.746 -3.192,-23.765 11.016,-0.698 17.661,16.58 12.178,24.983 -8.752,13.417 -21.219,0.209 -31.136,-0.982 -6.75,-0.81 -14.996,2.324 -18.412,8.514 -1.748,3.166 0.63,19.783 0.935,19.541 11.467,-9.281 10.837,-6.978 23.422,-4.299 9.561,2.034 20.281,1.712 28.215,-4.766 z"
     id="path14"
     inkscape:connector-curvature="0"
     style="fill:#f9ce3d" /><path
     d="m 333.48,267.858 c 0,0 0,-31.838 -20.699,-52.526 -20.692,-20.686 -57.296,-28.118 -72.156,-44.035 -14.861,-15.92 -20.164,-41.387 -20.164,-41.387 0,0 -3.181,-19.629 -11.676,-18.57 -8.488,1.057 -6.362,16.453 -6.362,16.453 0,0 -4.764,-13.804 -10.078,-13.269 -5.307,0.524 -6.905,23.338 -0.539,42.968 6.377,19.638 53.598,168.728 53.598,168.728 l -30.242,18.571 c 0,0 -16.455,10.606 -9.561,22.278 6.904,11.676 33.962,13.257 50.933,7.432 16.975,-5.836 23.88,-12.198 32.906,-12.732 9.008,-0.535 17.514,4.231 31.829,-1.061 14.326,-5.312 33.954,-32.373 37.678,-38.733 3.712,-6.371 12.728,-31.318 12.728,-31.318 0,0 33.958,4.258 39.257,-22.802 5.318,-27.059 -21.74,-38.199 -29.176,-39.269 -7.425,-1.059 -25.998,2.653 -32.375,13.804 -6.351,11.142 1.078,20.165 -15.901,25.468 z"
     id="path16"
     inkscape:connector-curvature="0"
     style="fill:#bc3164" /><path
     d="m 274.004,359.104 c 0,0 7.421,7.429 8.491,13.255 1.056,5.838 -4.244,14.861 -4.244,14.861 0,0 24.4,-3.709 27.05,-17.499 2.661,-13.805 -21.212,-14.86 -31.297,-10.617 z"
     id="path18"
     inkscape:connector-curvature="0"
     style="fill:#d1a62a" /><path
     d="m 210.383,347.978 c 0,0 -30.249,11.141 -59.432,10.606 -29.179,-0.524 -53.048,-9.012 -53.048,-9.012 0,0 -9.558,-2.661 -11.152,2.118 -1.576,4.777 7.429,12.732 7.429,12.732 0,0 -15.392,-1.592 -15.392,3.72 0,5.303 13.813,13.257 13.813,13.257 0,0 -17.521,-2.127 -16.448,7.955 1.063,10.082 21.208,11.676 21.208,11.676 0,0 -12.728,1.068 -10.089,7.964 2.668,6.882 22.293,9.024 22.293,9.024 0,0 -7.432,2.104 -3.177,9.01 4.247,6.897 30.773,6.364 50.937,-0.535 20.164,-6.893 61.539,-31.301 72.688,-51.465 11.136,-20.153 -19.63,-27.05 -19.63,-27.05 z"
     id="path20"
     inkscape:connector-curvature="0"
     style="fill:#de3f71" /><path
     d="m 203.097,343.463 c 0,0 -30.249,11.139 -59.432,10.602 -29.176,-0.52 -53.052,-9.008 -53.052,-9.008 0,0 -9.554,-2.664 -11.148,2.115 -1.58,4.781 7.432,12.735 7.432,12.735 0,0 -15.396,-1.594 -15.396,3.72 0,5.301 13.816,13.256 13.816,13.256 0,0 -17.525,-2.128 -16.455,7.954 1.067,10.082 21.208,11.676 21.208,11.676 0,0 -12.724,1.068 -10.086,7.965 2.664,6.883 22.289,9.023 22.289,9.023 0,0 -7.432,2.104 -3.174,9.012 4.247,6.895 30.773,6.358 50.937,-0.535 20.164,-6.897 61.54,-31.303 72.688,-51.465 11.139,-20.155 -19.627,-27.05 -19.627,-27.05 z"
     id="path22"
     inkscape:connector-curvature="0"
     style="fill:#f286b6" /><path
     d="m 265.556,361.772 c 0,0 7.421,7.429 8.495,13.256 1.052,5.836 -4.244,14.861 -4.244,14.861 0,0 24.397,-3.712 27.046,-17.499 2.661,-13.806 -21.207,-14.863 -31.297,-10.618 z"
     id="path24"
     inkscape:connector-curvature="0"
     style="fill:#f9ce3d" /><path
     d="m 326.575,267.858 c 0,0 0,-31.838 -20.695,-52.526 -20.695,-20.686 -57.299,-28.118 -72.156,-44.035 -14.861,-15.92 -20.167,-41.387 -20.167,-41.387 0,0 -3.174,-19.629 -11.672,-18.57 -8.491,1.057 -6.362,16.453 -6.362,16.453 0,0 -4.768,-13.804 -10.082,-13.269 -5.307,0.524 -6.908,23.338 -0.539,42.968 6.377,19.638 53.602,168.728 53.602,168.728 l -30.246,18.571 c 0,0 -16.455,10.606 -9.561,22.278 6.908,11.676 33.969,13.257 50.937,7.432 16.972,-5.836 23.88,-12.198 32.906,-12.732 9.008,-0.535 17.51,4.231 31.825,-1.061 14.329,-5.312 33.958,-32.373 37.681,-38.733 3.709,-6.371 12.728,-31.318 12.728,-31.318 0,0 33.958,4.258 39.257,-22.802 5.314,-27.059 -21.74,-38.199 -29.176,-39.269 -7.432,-1.059 -26.002,2.653 -32.371,13.804 -6.358,11.142 1.07,20.165 -15.909,25.468 z"
     id="path26"
     inkscape:connector-curvature="0"
     style="fill:#de3f71" /><path
     d="m 245.4,328.338 c 0,0 40.324,24.943 60.48,-7.954 20.16,-32.897 3.185,-63.663 -13.263,-77.991 -16.451,-14.328 -61.008,-35.016 -77.463,-50.411 -16.459,-15.396 -29.714,-44.035 -33.43,-58.347 -3.716,-14.329 -5.831,-20.166 -12.724,-18.049 -6.897,2.129 -6.377,25.991 -6.377,25.991 0,0 -5.823,-15.911 -12.2,-11.665 -6.369,4.244 0,29.721 0,29.721 0,0 -12.739,-9.036 -15.388,-2.138 -2.657,6.906 5.834,28.651 5.834,28.651 0,0 -14.311,-4.244 -14.853,5.836 -0.528,10.086 11.669,26.539 11.669,26.539 0,0 -13.791,-11.143 -14.315,-2.662 -0.528,8.499 15.385,27.057 15.385,27.057 0,0 -16.983,-8.488 -15.385,3.185 1.583,11.678 22.282,21.758 22.282,21.758 0,0 -14.854,-4.775 -13.794,5.303 1.048,10.082 21.219,20.699 21.219,20.699 0,0 -16.444,-3.199 -11.672,8.478 4.768,11.685 22.289,12.733 22.289,12.733 0,0 -7.964,4.253 -5.321,9.023 2.659,4.778 27.067,19.104 87.027,4.243 z"
     id="path28"
     inkscape:connector-curvature="0"
     style="fill:#bc3164" /><path
     d="m 234.105,326.48 c 0,0 40.324,24.941 60.484,-7.956 20.16,-32.895 3.181,-63.665 -13.263,-77.991 -16.451,-14.326 -61.012,-35.014 -77.467,-50.41 -16.459,-15.398 -29.711,-44.036 -33.43,-58.351 -3.712,-14.326 -5.831,-20.164 -12.724,-18.047 -6.897,2.127 -6.377,25.991 -6.377,25.991 0,0 -5.823,-15.911 -12.2,-11.663 -6.369,4.244 0,29.721 0,29.721 0,0 -12.735,-9.037 -15.389,-2.14 -2.653,6.906 5.838,28.651 5.838,28.651 0,0 -14.318,-4.244 -14.853,5.838 -0.531,10.082 11.669,26.537 11.669,26.537 0,0 -13.794,-11.141 -14.319,-2.662 -0.528,8.5 15.389,27.059 15.389,27.059 0,0 -16.983,-8.49 -15.389,3.185 1.583,11.676 22.279,21.756 22.279,21.756 0,0 -14.846,-4.777 -13.791,5.303 1.048,10.084 21.223,20.697 21.223,20.697 0,0 -16.448,-3.196 -11.673,8.48 4.764,11.684 22.289,12.733 22.289,12.733 0,0 -7.964,4.253 -5.325,9.023 2.661,4.779 27.073,19.107 87.029,4.246 z"
     id="path30"
     inkscape:connector-curvature="0"
     style="fill:#f286b6" /><path
     d="m 129.577,184.286 c 0,0 21.472,39.309 65.248,49.38 0.001,-0.001 -45.216,16.375 -65.248,-49.38 z"
     id="path32"
     inkscape:connector-curvature="0"
     style="fill:#e16498" /><path
     d="m 123.263,212.039 c 0,0 26.588,49.607 114.749,49.68 0,0 -75.697,25.013 -114.749,-49.68 z"
     id="path34"
     inkscape:connector-curvature="0"
     style="fill:#e16498" /><path
     d="m 151.328,139.716 c 0,0 8.572,66.3 69.283,83.559 0,0 -61.942,3.303 -69.283,-83.559 z"
     id="path36"
     inkscape:connector-curvature="0"
     style="fill:#e16498" /><path
     d="m 129.577,263.735 c 0,0 52.656,45.863 125.659,9.562 0,0 -72.288,24.367 -125.659,-9.562 z"
     id="path38"
     inkscape:connector-curvature="0"
     style="fill:#e16498" /><path
     d="m 141.785,291.998 c 0,0 41.269,24.516 100.76,3.209 0,0 -43.19,42.982 -100.76,-3.209 z"
     id="path40"
     inkscape:connector-curvature="0"
     style="fill:#e16498" /><path
     d="m 86.897,359.907 c 0,0 29.494,18.969 93.863,0 0,0 -55.614,36.749 -93.863,0 z"
     id="path42"
     inkscape:connector-curvature="0"
     style="fill:#e16498" /><path
     d="m 86.882,377.569 -2.071,-0.936 c 57.226,38.316 95.051,-7.212 95.051,-7.212 -46.488,30.579 -92.98,8.148 -92.98,8.148 z"
     id="path44"
     inkscape:connector-curvature="0"
     style="fill:#e16498" /><path
     d="m 98.075,413.633 -2.052,-0.198 c 58.333,14.218 86.962,-26.244 86.962,-26.244 -38.741,31.869 -84.91,26.442 -84.91,26.442 z"
     id="path46"
     inkscape:connector-curvature="0"
     style="fill:#e16498" /><path
     d="m 277.724,387.191 c 0,0 8.781,-4.427 4.39,-19.119 0,0 15.759,10.848 -4.39,19.119 z"
     id="path48"
     inkscape:connector-curvature="0"
     style="fill:#d1a62a" /><g
     id="g52">
				<path
   d="m 395.36,255.469 c 0,6.133 -4.973,11.099 -11.104,11.099 v 0 c -6.124,0 -11.093,-4.966 -11.093,-11.099 v -1.477 c 0,-6.133 4.969,-11.101 11.093,-11.101 v 0 c 6.131,0 11.104,4.968 11.104,11.101 z"
   id="path50"
   inkscape:connector-curvature="0" />
			</g><path
     d="m 382.951,252.154 c 0,2.459 -1.679,4.453 -3.749,4.453 -2.078,0 -3.76,-1.994 -3.76,-4.453 0,-2.459 1.682,-4.453 3.76,-4.453 2.07,0.001 3.749,1.994 3.749,4.453 z"
     id="path54"
     inkscape:connector-curvature="0"
     style="fill:#ffffff" /><g
     id="g60">
				<g
   id="g58">
					<path
   d="m 370.172,246.217 c -0.081,0.027 -0.165,0.044 -0.253,0.055 -0.623,0.059 -1.173,-0.398 -1.235,-1.019 -0.429,-4.398 2.195,-8.636 6.527,-10.547 4.145,-1.827 8.513,-0.995 11.39,2.186 0.414,0.467 0.381,1.182 -0.084,1.6 -0.465,0.421 -1.18,0.385 -1.602,-0.077 -2.624,-2.908 -6.249,-2.752 -8.796,-1.638 -2.855,1.264 -5.57,4.304 -5.182,8.26 0.052,0.532 -0.274,1.015 -0.765,1.18 z"
   id="path56"
   inkscape:connector-curvature="0" />
				</g>
			</g><rect
     x="210.58687"
     y="396.90454"
     transform="rotate(-16.182284)"
     width="188.36493"
     height="123.67059"
     id="rect62"
     style="fill:#dd9451;stroke-width:1.00002098" /><polygon
     points="487.951,316.797 494.539,269.591 312.807,322.328 344.827,358.33 "
     id="polygon64"
     style="fill:#fcb874" /><path
     d="m 399.523,282.979 35.673,7.458 -24.558,-23.145 c 0,0 -5.915,0.381 -9.433,4.882 -3.518,4.512 -1.682,10.805 -1.682,10.805 z"
     id="path72"
     inkscape:connector-curvature="0"
     style="fill:#f9ce3d" /></g>

</svg>